# xmcd CD database file
#
# Track frame offsets:
#	150
#	17332
#	32839
#	56348
#	69242
#	88981
#	107593
#	134010
#	154215
#	162379
#	183455
#	198653
#	216953
#
# Disc length: 3120 seconds
#
# Revision: 2
# Processed by: cddbd v1.5.1PL0 Copyright (c) Steve Scherf et al.
# Submitted via: CDex 1.51
#
DISCID=b70c2e0d
DTITLE=PUFFY - Jet CD
DYEAR=1998
DGENRE=JPop
TTITLE0=ジェット警察
TTITLE1=これが私の生きる道
TTITLE2=CAKE IS LOVE
TTITLE3=愛のしるし
TTITLE4=春の朝
TTITLE5=レモンキッド
TTITLE6=小美人
TTITLE7=ネホリーナハホリーナ
TTITLE8=哲学
TTITLE9=DE RIO
TTITLE10=サーキットの娘
TTITLE11=渚にまつわるエトセトラ
TTITLE12=MOTHER
EXTD=YEAR: 1998
EXTT0=
EXTT1=
EXTT2=
EXTT3=
EXTT4=
EXTT5=
EXTT6=
EXTT7=
EXTT8=
EXTT9=
EXTT10=
EXTT11=
EXTT12=
PLAYORDER=
